<svg xmlns="http://www.w3.org/2000/svg" id="SvgjsSvg821756" width="4096" height="1665.7484922191006" version="1.1" xmlns:xlink="http://www.w3.org/1999/xlink" xmlns:svgjs="http://svgjs.com/svgjs"><defs id="SvgjsDefs821757"></defs><g id="SvgjsG821758" transform="translate(328, 327.99999999999994) scale(34.4)" opacity="1"><defs id="SvgjsDefs209797"><linearGradient id="SvgjsLinearGradientheSBS21IA" gradientUnits="userSpaceOnUse" x1="8.769016044848405" y1="90.75132798505057" x2="91.27209511909047" y2="8.24824891080849"><stop id="SvgjsStop209800" stop-color="#71e1a6" offset="0.05"></stop><stop id="SvgjsStop209801" stop-color="#25ad66" offset="0.95"></stop></linearGradient></defs><g id="SvgjsG209798" transform="scale(0.21052631578947367)" opacity="1"><g id="SvgjsG209802" class="6MDeSPQfu" transform="translate(-13.800990227369988, -15.491133087727748) scale(1.7213179316080627)" light-content="false" non-strokable="false" fill="url(#SvgjsLinearGradientheSBS21IA)"><g fill-rule="evenodd"><path d="M33.383 61.232a3.54 3.54 0 0 1 .678-.596c.552-.389 1.156-.62 1.8-.637h-.108c.654.018 1.258.248 1.806.635.351.247.585.484.665.587l1.22 1.584 3.169-2.442-1.222-1.584c-.306-.398-.813-.911-1.527-1.415-1.152-.812-2.493-1.322-4.003-1.363h-.108c-1.5.04-2.838.551-3.992 1.362-.713.5-1.221 1.011-1.53 1.405L29 60.344l3.152 2.463 1.231-1.575zm28 0a3.54 3.54 0 0 1 .678-.596c.552-.389 1.156-.62 1.8-.637h-.108c.654.018 1.258.248 1.806.635.351.247.585.484.665.587l1.22 1.584 3.169-2.442-1.222-1.584c-.306-.398-.813-.911-1.527-1.415-1.152-.812-2.493-1.322-4.003-1.363h-.108c-1.5.04-2.838.551-3.992 1.362-.713.5-1.221 1.011-1.53 1.405L57 60.344l3.152 2.463 1.231-1.575z"></path><path d="M78.044 27.7L88.292 9.998a2 2 0 0 1 3.462 2.004L81.137 30.34C90 39.015 90 50 90 50v20s0 20-40 20-40-20-40-20V50s0-10.996 8.876-19.673L8.269 12.002a2 2 0 0 1 3.461-2.004L21.97 27.69C27.896 23.29 36.755 20 50 20c13.255 0 22.118 3.294 28.044 7.7zM20 60c0-8.284 6.708-15 15.005-15h29.99C73.282 45 80 51.714 80 60c0 8.284-6.708 15-15.005 15h-29.99C26.718 75 20 68.286 20 60z"></path></g></g><g id="SvgjsG209803" class="text" transform="translate(326.1328404667363, 106.94723330136415) scale(1)" light-content="false" fill="#3d3d3d"><path d="M-148.86 -24.02C-148.86 -16.32 -146.83 -10.2 -142.75 -5.66C-138.67 -1.13 -133.01 1.14 -125.75 1.14C-121.44 1.14 -117.69 0.68 -114.51 -0.23C-111.33 -1.15 -108.17 -2.76 -105.04 -5.06L-105.04 -22.08C-105.04 -23.53 -105.88 -24.26 -107.56 -24.26L-122.1 -24.26C-123.77 -24.26 -124.61 -23.53 -124.61 -22.08L-124.61 -18.12C-124.61 -16.67 -123.77 -15.95 -122.1 -15.95L-114.83 -15.95L-114.83 -9.95C-116.3 -8.74 -117.86 -7.91 -119.52 -7.45C-121.17 -7 -123.14 -6.77 -125.41 -6.77C-130.1 -6.77 -133.44 -8.25 -135.43 -11.21C-137.42 -14.17 -138.41 -18.44 -138.41 -24.02C-138.41 -29.6 -137.42 -33.88 -135.43 -36.84C-133.44 -39.79 -130.1 -41.27 -125.41 -41.27C-123.47 -41.27 -121.69 -40.89 -120.09 -40.13C-118.48 -39.38 -117.15 -38.43 -116.1 -37.29C-114.83 -35.9 -113.63 -35.58 -112.52 -36.32L-108.7 -38.79C-107.47 -39.6 -107.43 -40.73 -108.6 -42.18C-110.52 -44.57 -112.74 -46.33 -115.28 -47.47C-117.81 -48.61 -121.3 -49.18 -125.75 -49.18C-133.12 -49.18 -138.81 -46.91 -142.83 -42.38C-146.85 -37.85 -148.86 -31.73 -148.86 -24.02Z M-93.59 0L-88.49 0C-86.93 0 -86.15 -0.84 -86.15 -2.51L-86.15 -45.53C-86.15 -47.2 -86.93 -48.04 -88.49 -48.04L-93.59 -48.04C-95.15 -48.04 -95.93 -47.2 -95.93 -45.53L-95.93 -2.51C-95.93 -0.84 -95.15 0 -93.59 0Z M-74.86 -3.58C-72.67 -1.93 -70.36 -0.73 -67.92 0.02C-65.49 0.76 -62.33 1.14 -58.44 1.14C-55.81 1.14 -53.1 0.8 -50.32 0.12C-47.54 -0.56 -45.01 -2.07 -42.73 -4.41C-40.45 -6.74 -39.31 -9.69 -39.31 -13.27C-39.31 -15.68 -39.7 -17.76 -40.47 -19.5C-41.24 -21.24 -42.22 -22.61 -43.4 -23.62C-44.59 -24.62 -46.29 -25.63 -48.53 -26.63C-50.14 -27.35 -51.89 -28 -53.79 -28.59C-55.69 -29.19 -57.84 -29.87 -60.25 -30.65C-61.03 -30.9 -61.8 -31.21 -62.56 -31.58C-63.32 -31.94 -64.02 -32.5 -64.64 -33.25C-65.27 -34 -65.58 -34.98 -65.58 -36.18C-65.58 -37.43 -65.16 -38.48 -64.31 -39.33C-63.46 -40.18 -62.48 -40.72 -61.37 -40.94C-60.27 -41.16 -59.06 -41.27 -57.74 -41.27C-55.89 -41.27 -54.11 -40.86 -52.4 -40.03C-50.69 -39.21 -49.34 -38.46 -48.36 -37.79C-46.82 -36.74 -45.59 -36.84 -44.67 -38.09L-41.96 -41.74C-41.25 -42.7 -41.59 -43.78 -43 -44.96C-44.43 -46.17 -46.54 -47.17 -49.35 -47.97C-52.15 -48.78 -54.87 -49.18 -57.51 -49.18C-60.16 -49.18 -62.8 -48.87 -65.41 -48.24C-68.02 -47.62 -70.34 -46.2 -72.35 -43.99C-74.36 -41.78 -75.36 -39.12 -75.36 -36.01C-75.36 -33.4 -74.94 -31.31 -74.09 -29.75C-73.24 -28.19 -72.05 -26.78 -70.5 -25.53C-68.96 -24.28 -67.27 -23.29 -65.41 -22.58C-63.33 -21.78 -61.23 -21.09 -59.1 -20.52C-56.96 -19.95 -55.19 -19.38 -53.79 -18.79C-52.98 -18.46 -52.2 -18.05 -51.44 -17.55C-50.68 -17.06 -50.14 -16.44 -49.8 -15.68C-49.47 -14.92 -49.3 -14.04 -49.3 -13.03C-49.3 -11.63 -49.68 -10.41 -50.44 -9.38C-51.2 -8.35 -52.3 -7.66 -53.75 -7.3C-55.21 -6.95 -56.71 -6.77 -58.28 -6.77C-60.51 -6.77 -62.64 -7.23 -64.66 -8.16C-66.68 -9.08 -68.32 -9.98 -69.57 -10.85C-71.2 -11.99 -72.44 -11.93 -73.28 -10.65L-75.86 -6.77C-76.58 -5.7 -76.24 -4.63 -74.86 -3.58Z M-29.26 0L-24.17 0C-22.61 0 -21.83 -0.84 -21.83 -2.51L-21.83 -14.98L-16.2 -21.31L-3.87 -1.98C-3.02 -0.66 -2.02 0 -0.85 0L5.41 0C7.49 0 7.91 -0.96 6.68 -2.88L-9.63 -28.48L5.61 -45.16C7.38 -47.08 6.95 -48.04 4.34 -48.04L-2.4 -48.04C-3.24 -48.04 -4.27 -47.38 -5.48 -46.06L-21.76 -28.17L-21.99 -28.17C-21.88 -29.51 -21.83 -30.85 -21.83 -32.2L-21.83 -45.53C-21.83 -47.2 -22.61 -48.04 -24.17 -48.04L-29.26 -48.04C-30.83 -48.04 -31.61 -47.2 -31.61 -45.53L-31.61 -2.51C-31.61 -0.84 -30.83 0 -29.26 0Z M12.48 0L17.81 0C19.28 0 20.31 -0.77 20.89 -2.31L24.31 -11.32L41.32 -11.32L44.74 -2.31C45.32 -0.77 46.35 0 47.82 0L53.15 0C54.76 0 55.28 -0.74 54.72 -2.21L38.31 -45.33C37.62 -47.14 36.57 -48.04 35.16 -48.04L30.47 -48.04C29.06 -48.04 28.01 -47.14 27.32 -45.33L10.9 -2.21C10.35 -0.74 10.87 0 12.48 0ZM27.42 -19.63L31.54 -30.29C32.03 -31.54 32.33 -32.45 32.43 -33.02C32.53 -33.59 32.64 -34.43 32.75 -35.55L32.88 -35.55C32.99 -34.43 33.1 -33.59 33.2 -33.02C33.3 -32.45 33.6 -31.54 34.09 -30.29L38.21 -19.63Z M63.03 0L68.13 0C69.69 0 70.47 -0.84 70.47 -2.51L70.47 -19.4L72.95 -19.4C74.87 -19.4 76.81 -18.68 78.76 -17.24C80.72 -15.8 82.06 -14.47 82.8 -13.27L89.57 -1.98C90.35 -0.66 91.35 0 92.58 0L98.41 0C100.49 0 100.91 -0.96 99.68 -2.88L92.31 -14.51C91.62 -15.58 90.73 -16.83 89.63 -18.26C88.54 -19.69 86.92 -20.8 84.78 -21.61L84.78 -21.68C88.73 -22.37 91.99 -23.77 94.56 -25.9C97.13 -28.02 98.41 -30.87 98.41 -34.44C98.41 -39.24 96.83 -42.71 93.65 -44.84C90.48 -46.97 85.45 -48.04 78.54 -48.04L63.03 -48.04C61.47 -48.04 60.69 -47.2 60.69 -45.53L60.69 -2.51C60.69 -0.84 61.47 0 63.03 0ZM70.47 -27.71L70.47 -39.87L78.08 -39.87C81.6 -39.87 84.28 -39.5 86.1 -38.78C87.92 -38.05 88.83 -36.48 88.83 -34.07C88.83 -31.86 87.89 -30.25 86 -29.23C84.11 -28.21 80.93 -27.71 76.47 -27.71Z M110.87 0L122.57 0C132.84 0 139.79 -2.1 143.42 -6.3C147.05 -10.5 148.86 -16.43 148.86 -24.09C148.86 -31.75 147.05 -37.66 143.42 -41.81C139.79 -45.96 132.84 -48.04 122.57 -48.04L110.87 -48.04C109.31 -48.04 108.53 -47.2 108.53 -45.53L108.53 -2.51C108.53 -0.84 109.31 0 110.87 0ZM118.31 -8.31L118.31 -39.8L121.93 -39.8C128.85 -39.8 133.33 -38.52 135.36 -35.96C137.4 -33.41 138.41 -29.45 138.41 -24.09C138.41 -18.73 137.4 -14.76 135.36 -12.18C133.33 -9.6 128.85 -8.31 121.93 -8.31Z"></path></g></g></g></svg>